# xmcd
#
# Track frame offsets:
#	150
#	24760
#	50380
#	77325
#	97585
#	115960
#	133645
#	152602
#	178087
#	204015
#	213027
#	228857
#	244395
#	262922
#
# Disc length: 3876 seconds
#
# Revision: 1
# Processed by: cddbd v1.5.1PL0 Copyright (c) Steve Scherf et al.
# Submitted via: CDex 1.50Beta5
#
DISCID=9b0f220e
DTITLE=岡崎倫典 - ’96 Kamakura FM82.8
DYEAR=1996
DGENRE=Fusion
TTITLE0=1192 KAMAKURA
TTITLE1=STARDUST
TTITLE2=Bayside Resort
TTITLE3=もうひとつの週末
TTITLE4=Lover’s Effect
TTITLE5=Your Song
TTITLE6=Scandinavia
TTITLE7=Dawning
TTITLE8=Eros
TTITLE9=迎夢
TTITLE10=Tammy
TTITLE11=夢中遊泳
TTITLE12=Smoke Gets In Your Eyes
TTITLE13=Colors Of The Wind
EXTD=
EXTT0=
EXTT1=
EXTT2=
EXTT3=
EXTT4=
EXTT5=
EXTT6=
EXTT7=
EXTT8=
EXTT9=
EXTT10=
EXTT11=
EXTT12=
EXTT13=
PLAYORDER=
